<?xml version="1.0" encoding="UTF-8"?>
<svg width="800px" height="600px" viewBox="0 0 800 600" version="1.1" xmlns="http://www.w3.org/2000/svg">
    <defs>
        <linearGradient x1="50%" y1="0%" x2="50%" y2="100%" id="robotGradient">
            <stop stop-color="currentColor" offset="0%" stop-opacity="1"/>
            <stop stop-color="currentColor" offset="100%" stop-opacity="0.6"/>
        </linearGradient>
    </defs>
    <g stroke="none" stroke-width="1" fill="none" fill-rule="evenodd">
        <!-- Robot Body -->
        <rect fill="url(#robotGradient)" x="300" y="200" width="200" height="250" rx="20"/>
        
        <!-- Robot Head -->
        <rect fill="url(#robotGradient)" x="325" y="125" width="150" height="125" rx="15"/>
        
        <!-- Antenna -->
        <path d="M400,125 L400,75 M380,75 L420,75" stroke="currentColor" stroke-width="8" stroke-linecap="round"/>
        
        <!-- Left Eye (confused) -->
        <circle fill="#FFFFFF" cx="365" cy="175" r="20"/>
        <path d="M355,175 Q365,185 375,175" stroke="currentColor" stroke-width="4" fill="none"/>
        
        <!-- Right Eye (spiral) -->
        <circle fill="#FFFFFF" cx="435" cy="175" r="20"/>
        <path d="M435,175 A5,5 0 1,1 430,170 A10,10 0 1,1 440,180" stroke="currentColor" stroke-width="4" fill="none"/>
        
        <!-- Mouth (zigzag) -->
        <path d="M365,225 L385,215 L405,225 L425,215 L445,225" stroke="currentColor" stroke-width="4" fill="none"/>
        
        <!-- Panel Lines -->
        <line x1="320" y1="300" x2="480" y2="300" stroke="currentColor" stroke-width="4"/>
        <line x1="320" y1="350" x2="480" y2="350" stroke="currentColor" stroke-width="4"/>
        
        <!-- Smoke -->
        <path d="M500,250 Q520,240 510,220 Q500,200 520,190 M530,260 Q550,250 540,230 Q530,210 550,200" 
              stroke="currentColor" stroke-width="4" fill="none" opacity="0.6">
            <animate attributeName="d" 
                     dur="3s" 
                     repeatCount="indefinite" 
                     values="M500,250 Q520,240 510,220 Q500,200 520,190 M530,260 Q550,250 540,230 Q530,210 550,200;
                             M500,240 Q525,230 515,210 Q505,190 525,180 M530,250 Q555,240 545,220 Q535,200 555,190;
                             M500,250 Q520,240 510,220 Q500,200 520,190 M530,260 Q550,250 540,230 Q530,210 550,200"/>
        </path>
        
        <!-- Bolts -->
        <circle fill="currentColor" cx="315" cy="225" r="5"/>
        <circle fill="currentColor" cx="485" cy="225" r="5"/>
        <circle fill="currentColor" cx="315" cy="375" r="5"/>
        <circle fill="currentColor" cx="485" cy="375" r="5"/>
        
        <!-- Error Sparks -->
        <g opacity="0.8">
            <path d="M280,150 L290,160 M285,150 L285,160" stroke="currentColor" stroke-width="2">
                <animate attributeName="opacity" values="0;1;0" dur="1s" repeatCount="indefinite"/>
            </path>
            <path d="M510,150 L520,160 M515,150 L515,160" stroke="currentColor" stroke-width="2">
                <animate attributeName="opacity" values="0;1;0" dur="1.2s" repeatCount="indefinite"/>
            </path>
            <path d="M300,400 L310,410 M305,400 L305,410" stroke="currentColor" stroke-width="2">
                <animate attributeName="opacity" values="0;1;0" dur="0.8s" repeatCount="indefinite"/>
            </path>
        </g>
    </g>
</svg>
